<?xml version="1.0" encoding="utf-8"?>
<!-- Generator: Adobe Illustrator 22.0.1, SVG Export Plug-In . SVG Version: 6.00 Build 0)  -->
<svg version="1.1" id="mv-logo" xmlns="http://www.w3.org/2000/svg" xmlns:xlink="http://www.w3.org/1999/xlink" x="0px"
   y="0px" viewBox="0 0 352.4 870.7" style="enable-background:new 0 0 352.4 870.7;" xml:space="preserve">
<style type="text/css">
  .st0{
    fill: #fff;
    stroke: #231815;
    stroke-width: 5.7;
    stroke-miterlimit: 10;
  }

  .st1 {
    fill: #fff;
    stroke: #231815;
    stroke-width: 5.74;
    stroke-linejoin: round;
  }
</style>
<title>mv-logo</title>
  <!-- 卓 -->
  <g id="logo01">
    <path class="st1" d="M190.1,280.9v68.2h-29.1v-68.2H8.3v-24.9h152.6v-36H50.5V88h110.4V2.9h29.1v33.4h135.7v25.7H190.1V88h118.1
      v131.9H190.1v36h159.5v24.9L190.1,280.9z M280.2,112.1H78.5v29.5h201.7V112.1z M280.2,165.4H78.5v30.3h201.7V165.4z"/>
  </g>

    <!-- 展 -->
  <g id="logo02">
    <path class="st0" d="M271.6,657.8c19.5-12.1,31.4-20.1,40.2-27.5c2.5-2,10-8.4,10-8.4l-18.6-17.1c-22.5,20.6-40.5,31.3-50.4,36.4
      c-4.4-4.4-21-21-28.3-44.9H329v-23.2h-83.6v-35.3h68.1v-23.2h-68.1v-36.2h70.3V400H46c1.1,35,1.8,54.6,1.8,87
      c0,73.6-6.7,149-43.8,212.7l23.9,12.5c14.4-24.3,29.8-63.3,38.3-115.9h56.7v81.3c-26.9,5.9-41.2,7.4-51.5,8.8l5.9,25.4
      c0,0,78.6-14,131.8-30.2l2.2-24.3c-20.5,6.6-41.4,11.7-62.6,15.5v-76.6h48.2c12.9,47.1,55.9,95,131.4,118.9l15.1-22.5
      C330.5,688.7,301.8,680.2,271.6,657.8z M288.9,422.8v32.8H73.2c0-4.8-1.1-27.6-1.1-32.8H288.9z M137.2,573.1H68.8
      c1.3-13.4,2.3-24.7,2.9-35.3h65.5L137.2,573.1z M72.8,514.6c0.3-11,0.4-22.5,0.4-36.2h64v36.2H72.8z M220.8,573.1h-58.5v-35.3
      h58.5L220.8,573.1z M162.2,514.6v-36.2h58.5v36.2L162.2,514.6z"/>
  </g>

  <!-- 2 -->
  <g id="logo03">
    <path class="st0" d="M61.2,830.2c2.2-2.1,4.4-4.2,6.5-6.4c2.1-2.2,4.1-4.6,5.8-7.1c1.8-2.7,3.2-5.5,4.3-8.6
      c1.1-3.4,1.7-6.9,1.6-10.5c0.1-4.1-0.8-8.1-2.5-11.8c-1.6-3.3-3.9-6.3-6.8-8.6c-2.9-2.3-6.1-4.1-9.6-5.2c-7.2-2.2-15-2.3-22.3-0.1
      c-3.3,1-6.5,2.6-9.3,4.7c-2.8,2.1-5.2,4.8-7,7.9c-1.9,3.3-3.1,6.9-3.7,10.7l-0.6,3.8l18.3,1.6l0.6-3.2c0.5-3.1,2.1-6,4.4-8.1
      c2.4-2,5.5-3.1,8.6-2.9c1.7,0,3.4,0.3,5,0.8c1.4,0.5,2.8,1.3,3.9,2.3c1.1,1,1.9,2.1,2.5,3.4c0.6,1.5,0.9,3.1,0.9,4.7
      c0,1.6-0.2,3.2-0.6,4.8c-0.4,1.4-1,2.8-1.8,4.1c-1,1.6-2.2,3.1-3.5,4.4c-1.5,1.6-3.3,3.4-5.3,5.4l-34,33.1v16.9H80v-16.7H40.6
      L61.2,830.2z"/>
  </g>

  <!-- 0 -->
  <g id="logo04">
    <path class="st0" d="M166.1,787.4c-2.4-4.8-5.8-8.9-10.1-12.1c-4.4-3.3-10.1-5-16.9-5s-12.4,1.7-16.9,5
      c-4.3,3.2-7.8,7.3-10.1,12.1c-2.5,4.9-4.1,10.2-4.9,15.7c-1.7,10.6-1.7,21.4,0,31.9c0.8,5.5,2.5,10.8,4.9,15.7
      c2.4,4.8,5.8,8.9,10.1,12.1c4.4,3.3,10.1,5,16.9,5s12.4-1.7,16.9-5c4.3-3.2,7.8-7.3,10.1-12.1c2.4-5,4.1-10.3,4.9-15.7
      c1.7-10.6,1.7-21.4,0-31.9C170.2,797.6,168.5,792.3,166.1,787.4z M139.1,851.8c-2,0.1-3.9-0.4-5.6-1.3c-1.6-0.9-3-2.2-4.1-3.8
      c-1.3-1.8-2.3-3.7-3-5.8c-0.8-2.4-1.4-4.8-1.8-7.3c-0.4-2.5-0.7-5-0.9-7.6c-0.2-2.5-0.2-4.8-0.2-6.9s0.1-4.4,0.2-6.9
      c0.2-2.5,0.5-5.1,0.9-7.6c0.4-2.5,1-4.9,1.8-7.3c0.7-2.1,1.7-4.1,3-5.8c1.1-1.5,2.5-2.8,4.1-3.8c3.5-1.7,7.7-1.7,11.2,0
      c1.6,0.9,3,2.2,4.1,3.8c1.3,1.8,2.3,3.7,3,5.8c0.8,2.4,1.4,4.8,1.8,7.3c0.4,2.5,0.7,5,0.9,7.6c0.2,2.6,0.2,4.9,0.2,6.9
      s-0.1,4.4-0.2,6.9c-0.2,2.5-0.5,5.1-0.9,7.6c-0.4,2.5-1,4.9-1.8,7.3c-0.7,2.1-1.7,4-3,5.8c-1.1,1.5-2.5,2.8-4.1,3.8
      C143,851.4,141,851.8,139.1,851.8L139.1,851.8z"/>
  </g>

  <!-- 1 -->
  <g id="logo05">
    <polygon class="st0" points="195.1,793.9 205.9,807 218.7,796.2 218.7,866.3 236.2,866.3 236.2,771.8 222.4,771.8    "/>
  </g>

  <!-- 8 -->
  <g id="logo06">
    <path class="st0" d="M333.5,829.7L333.5,829.7c-0.9-2.8-2.3-5.4-4-7.8c-1.8-2.3-3.9-4.3-6.4-5.9l-0.6-0.4c1.9-1.4,3.5-3.2,4.9-5.1
      c1.4-2,2.6-4.3,3.3-6.7c0.8-2.3,1.2-4.8,1.2-7.3c0-3.7-0.7-7.4-2.2-10.9c-1.4-3.2-3.5-6-6.1-8.3c-2.7-2.3-5.7-4.1-9-5.3
      c-7.2-2.5-15-2.5-22.2,0c-3.3,1.2-6.4,3-9,5.3c-2.6,2.3-4.7,5.2-6.1,8.3c-1.5,3.4-2.2,7.1-2.2,10.8c0,2.5,0.4,4.9,1.2,7.3
      c1.5,4.7,4.4,8.8,8.3,11.8l-0.6,0.4c-2.5,1.6-4.6,3.5-6.4,5.9c-1.7,2.3-3.1,5-4,7.8c-0.9,2.9-1.4,5.9-1.4,9
      c-0.1,4.2,0.8,8.3,2.5,12.2c1.6,3.5,3.9,6.7,6.8,9.3c2.9,2.6,6.4,4.5,10.1,5.8c7.8,2.5,16.3,2.5,24.1,0c3.7-1.2,7.2-3.2,10.1-5.8
      c2.9-2.6,5.2-5.7,6.8-9.3c1.7-3.8,2.5-8,2.5-12.2C335,835.6,334.5,832.6,333.5,829.7z M304.5,851.7c-1.9,0-4.7-0.3-6.5-1
      c-1.7-0.7-3.2-1.6-4.5-2.9c-1.3-1.2-2.3-2.7-2.9-4.3c-1.4-3.6-1.4-7.7,0-11.3c0.7-1.6,1.7-3.1,2.9-4.3c5.6-5.3,14.3-5.3,19.9,0
      c1.3,1.2,2.3,2.7,2.9,4.3c1.4,3.6,1.4,7.7,0,11.3c-0.7,1.6-1.7,3.1-2.9,4.3c-2.7,2.5-6.1,3.9-9.9,3.9L304.5,851.7z M311.4,805.2
      c-4.3,4.9-11.7,5.2-16.6,0.8c-4.9-4.3-5.3-11.8-1-16.7c4.3-4.9,11.8-5.3,16.7-1c2.5,2.2,4,5.5,4,8.8
      C314.6,800.1,313.5,803,311.4,805.2L311.4,805.2z"/>
  </g>
</svg>
